<svg width="1728" height="843" viewBox="0 0 1728 843" fill="none" xmlns="http://www.w3.org/2000/svg">
<path d="M1718.52 249.982C1718.48 249.729 1718.38 249.491 1718.22 249.292C1715.42 245.25 1711.68 241.955 1707.31 239.699C1702.95 237.443 1698.09 236.295 1693.17 236.357C1679.76 236.12 1666.37 237.247 1653.19 239.72H1652.37H1652.15C1633.87 244.175 1615.36 247.673 1596.71 250.197C1590.97 251.103 1585.22 251.965 1579.44 252.914C1551.2 257.527 1522.48 261.969 1494.72 266.28L1477.79 268.911C1469.85 270.118 1461.73 271.239 1453.87 272.317L1447.53 273.179C1446.69 273.405 1445.81 273.405 1444.98 273.179C1444.92 271.833 1445.17 270.492 1445.71 269.256C1445.71 268.781 1446.01 268.35 1446.14 267.876L1458.58 224.758C1469.72 185.952 1481.29 146.111 1493.12 106.873C1498.99 87.0821 1504.09 67.4634 1508.24 48.5778C1511.11 38.7019 1510.98 28.1938 1507.85 18.3952C1507.87 18.3099 1507.87 18.2217 1507.85 18.1365L1505.17 13.1779C1504.95 12.8425 1504.65 12.5623 1504.31 12.3587C1504.07 12.2636 1503.86 12.1044 1503.71 11.8988C1503.56 11.6933 1503.46 11.4494 1503.44 11.1945C1503.38 10.76 1503.17 10.3617 1502.84 10.0734C1497.43 5.2971 1490.84 2.06469 1483.75 0.716797H1483.32H1469.59H1469.16C1460.75 2.15609 1452.88 5.79571 1446.34 11.2646C1439.8 16.7335 1434.83 23.836 1431.94 31.848C1431.12 34.0039 1430.21 36.1598 1429.35 38.2726L1428.09 41.2477C1428.05 41.4754 1428.05 41.7099 1428.09 41.9376C1427.74 42.1665 1427.47 42.5197 1427.36 42.9293C1426.32 46.1632 1425.29 49.3539 1424.21 52.5877C1421.96 59.5297 1419.59 66.6442 1417.6 73.8018L1409.05 104.2C1398.95 140.893 1388.5 178.88 1377.1 215.876C1371.36 234.416 1366.13 253.388 1361.08 271.929L1359.31 278.31C1357.97 283.226 1356.33 284.821 1352.66 284.907C1351.5 284.991 1350.36 285.267 1349.29 285.727L1347.82 286.201C1340.96 287.614 1334.61 290.852 1329.44 295.573C1324.28 300.294 1320.48 306.323 1318.46 313.02C1316.52 318.712 1314.62 324.404 1312.68 330.052L1310.13 337.511C1310.09 337.725 1310.09 337.944 1310.13 338.158C1310.34 358.553 1315.74 364.029 1336.34 365.495C1337.18 365.532 1338.02 365.633 1338.84 365.797C1338.67 366.848 1338.43 367.886 1338.11 368.901C1332.5 388.865 1326.45 410.295 1320.02 432.026C1314.3 452.764 1307.29 473.127 1299.03 492.995C1293.39 506.473 1285.31 518.795 1275.2 529.343C1271.39 533.437 1266.65 536.558 1261.38 538.441C1260.94 538.63 1260.46 538.727 1259.98 538.727C1259.49 538.727 1259.02 538.63 1258.57 538.441C1258.28 538.073 1258.07 537.651 1257.94 537.2C1257.81 536.748 1257.78 536.276 1257.84 535.811C1257.78 532.908 1258.1 530.009 1258.79 527.187C1262.93 508.992 1267.09 490.767 1271.27 472.514C1275.59 453.197 1280.12 433.708 1284.48 414.477C1286.64 404.991 1288.8 395.505 1290.78 385.976C1293.03 375.8 1295.32 365.236 1297.69 354.888C1300.13 345.147 1299.3 334.875 1295.32 325.654L1295.06 325.266L1294.15 324.102C1293.5 323.239 1292.86 322.377 1292.17 321.558C1287.77 316.688 1282.25 312.964 1276.09 310.709C1269.93 308.455 1263.31 307.739 1256.8 308.622C1248.6 309.873 1237.41 314.702 1230.64 330.569C1228.12 336.612 1226.07 342.839 1224.5 349.196C1222.13 358.682 1219.5 368.255 1216.99 377.525C1215.95 381.405 1214.88 385.286 1213.84 389.21C1212.5 396.83 1210.7 404.361 1208.44 411.761C1207.53 414.908 1206.63 418.056 1205.81 421.247C1199.03 447.117 1191.52 472.988 1183.4 497.393C1178.76 510.906 1171.65 523.438 1162.41 534.345C1158.4 539.441 1153.14 543.408 1147.13 545.857C1143.89 547.469 1140.3 548.216 1136.69 548.026C1133.08 547.837 1129.59 546.716 1126.54 544.775C1123.5 542.834 1121.01 540.137 1119.32 536.949C1117.63 533.761 1116.8 530.19 1116.9 526.584C1116.7 518.742 1117.64 510.912 1119.71 503.343C1121.61 495.366 1123.21 489.373 1124.89 483.768C1135.04 449.791 1144.23 414.779 1152.91 376.318C1153.3 374.679 1153.6 373.041 1153.91 371.359C1154.21 369.677 1154.73 367.047 1155.33 364.633C1158.23 354.667 1157.6 344.009 1153.56 334.45C1153.58 334.322 1153.58 334.19 1153.56 334.062C1150.21 328.991 1145.5 324.97 1139.96 322.467C1134.42 319.964 1128.28 319.081 1122.26 319.919C1111.86 321.045 1102.22 325.902 1095.14 333.588C1089.64 339.783 1085.65 347.161 1083.48 355.147C1081.24 362.779 1079.16 370.583 1077.05 378.129L1074.33 388.003C1074.3 388.16 1074.3 388.32 1074.33 388.477C1074.12 392.298 1073.37 396.071 1072.12 399.688L1071.35 402.404C1065.65 423.316 1060.81 444.746 1056.15 465.486C1054.16 474.109 1052.22 482.733 1050.19 491.572C1047.32 506.276 1042.68 520.579 1036.37 534.173C1033.12 540.954 1028.74 547.135 1023.42 552.455C1021.52 554.539 1019.17 556.161 1016.55 557.198C1016.31 557.302 1016.04 557.356 1015.78 557.356C1015.51 557.356 1015.24 557.302 1015 557.198C1014.68 556.841 1014.49 556.383 1014.48 555.904C1014.34 553.185 1014.64 550.461 1015.39 547.841L1015.9 545.599C1021.22 519.728 1027.74 493.857 1034.04 468.633C1039.09 448.497 1044.32 427.671 1048.89 407.061C1050.79 398.437 1052 389.814 1053.21 381.19C1053.61 374.89 1052.38 368.593 1049.63 362.908C1049.24 361.873 1048.81 360.838 1048.46 359.803L1048.2 359.329C1048.01 359.046 1047.74 358.822 1047.43 358.682C1046.99 358.682 1046.56 358.165 1046.22 357.13C1046.09 356.772 1045.87 356.457 1045.57 356.225C1040.72 352.436 1035.05 349.838 1029.01 348.64C1022.97 347.441 1016.74 347.676 1010.81 349.326C996.206 352.144 982.718 359.088 971.948 369.332C969.444 371.833 966.81 374.291 964.219 376.663L960.635 379.983L960.333 380.371C956.069 386.998 950.976 393.054 945.177 398.394L944.918 398.653L935.419 410.941C935.292 411.074 935.202 411.237 935.16 411.416C933.78 414.364 931.976 417.095 929.805 419.522L927.646 422.238C906.877 449.618 888.137 473.161 870.391 494.245C870.65 493.21 870.866 492.262 871.125 491.313C879.089 463.39 885.347 435.009 889.864 406.328C892.172 394.112 891.097 381.5 886.756 369.85C886.648 369.612 886.502 369.394 886.324 369.203C882.206 364.779 877.11 361.377 871.443 359.266C865.776 357.155 859.694 356.394 853.68 357.044C842.151 358.725 832.091 366.573 824.966 379.163C820.349 387.278 816.406 395.758 813.178 404.517C811.883 408.095 810.587 411.717 809.335 415.296C807.003 422.023 804.585 428.965 801.951 435.691C797.399 448.782 790.03 460.718 780.362 470.66L780.103 470.962C774.955 477.648 768.176 482.904 760.413 486.225C755.491 468.159 744.221 454.059 733.296 440.477L730.619 437.157C730.638 437.086 730.638 437.012 730.619 436.941C716.477 423.9 698.506 415.751 679.365 413.701C649.951 412.247 620.946 421.058 597.325 438.623C556.547 466.86 525.21 506.685 507.382 552.929C497.285 578.602 493.194 606.239 495.422 633.732C496.16 646.693 499.617 659.355 505.567 670.898C511.518 682.441 519.83 692.607 529.965 700.737C547.237 714.794 562.911 722.296 579.017 723.849C584.483 724.411 589.973 724.699 595.468 724.711C628.898 724.784 661.232 712.811 686.533 690.993C705.23 675.384 720.472 654.644 734.419 625.798C741.885 610.048 747.674 593.558 751.691 576.601C752.022 574.794 752.822 573.107 754.012 571.707C755.202 570.307 756.739 569.244 758.47 568.624C762.183 567.028 765.897 565.174 769.438 563.363C771.856 562.113 774.36 560.863 776.821 559.698L778.635 558.707C779.429 558.115 780.342 557.703 781.312 557.499C781.252 558.278 781.047 559.038 780.707 559.741C780.707 560.302 780.319 560.863 780.146 561.423L779.541 563.795C773.021 588.587 766.242 614.243 762.27 640.07C759.684 653.128 759.979 666.591 763.133 679.523C768.962 700.78 780.146 707.378 803.031 703.023C804.174 702.801 805.289 702.454 806.356 701.988L807.694 701.513C817.252 697.755 825.693 691.626 832.22 683.706C845.709 668.751 858.173 652.905 869.527 636.276C900.357 591.433 929.33 546.073 958.735 499.635C958.865 499.455 958.954 499.249 958.995 499.031C959.244 497.655 959.838 496.365 960.722 495.28C960.077 498.764 958.789 502.098 956.922 505.111C956.905 505.254 956.905 505.399 956.922 505.542L950.056 529.645C944.486 549.178 938.7 569.4 933.303 589.407C929.878 601.104 927.692 613.128 926.783 625.281C926.3 632.463 927.541 639.657 930.402 646.263C933.264 652.87 937.663 658.7 943.234 663.268C948.759 667.69 955.262 670.733 962.201 672.142C969.14 673.552 976.315 673.289 983.132 671.374C999.889 666.891 1014.49 656.567 1024.28 642.269C1024.71 641.608 1025.1 640.961 1025.45 640.329C1025.85 639.286 1026.56 638.386 1027.48 637.742L1029.51 639.424L1031.36 640.933C1043.81 651.523 1059.38 657.761 1075.71 658.697C1091.03 659.75 1106.39 657.369 1120.66 651.729C1134.94 646.089 1147.77 637.332 1158.22 626.1C1162.11 621.788 1165.74 617.476 1169.62 613.165L1173.94 608.163L1175.41 609.37C1177.48 611.138 1179.73 612.949 1181.76 614.631C1194.13 624.901 1208.65 632.268 1224.24 636.19C1232.39 638.331 1240.91 638.654 1249.19 637.133C1257.48 635.613 1265.32 632.287 1272.17 627.394C1279.32 622.07 1285.42 615.46 1290.14 607.904C1291.48 605.878 1292.86 603.593 1293.46 603.593C1294.07 603.593 1295.92 604.584 1298 605.835L1300.93 607.646C1303.61 609.327 1306.42 611.052 1309.31 612.518C1328.12 622.357 1349.32 626.734 1370.49 625.151C1393.47 622.967 1415.43 614.625 1434.05 601.005C1447.42 591.294 1459.87 580.399 1471.27 568.451C1510.63 528.023 1546.39 484.252 1578.14 437.631C1582.04 431.936 1585.48 425.937 1588.42 419.694C1591.62 412.91 1592.91 405.38 1592.13 397.92C1591.68 392.604 1589.97 387.471 1587.14 382.945C1584.31 378.42 1580.44 374.632 1575.86 371.894C1571.27 369.156 1566.1 367.546 1560.77 367.198C1555.44 366.85 1550.1 367.774 1545.2 369.893C1538.27 373.087 1531.96 377.464 1526.54 382.828C1512.72 396.254 1499.6 410.387 1487.25 425.17L1482.93 430.043C1463.51 451.988 1442.54 472.522 1420.19 491.486C1413.76 497.276 1405.78 501.067 1397.22 502.395C1394.91 502.954 1392.48 502.582 1390.44 501.36C1388.87 499.828 1387.97 497.734 1387.94 495.539C1387.51 490.479 1387.8 485.383 1388.8 480.404C1391.56 465.874 1395.58 451.429 1399.51 437.286C1400.5 433.708 1401.54 430.129 1402.49 426.55C1405.43 415.814 1408.45 404.991 1411.47 394.47C1415.01 381.88 1418.68 368.858 1422.18 356.052C1422.35 354.482 1423.12 353.037 1424.32 352.012C1425.53 350.986 1427.08 350.458 1428.66 350.533C1443.08 349.11 1457.72 347.429 1471.83 345.79L1483.97 344.41L1497.31 342.858C1517.09 340.573 1537.55 338.201 1557.76 336.778L1565.97 336.175C1583.08 335.357 1600.12 333.5 1617 330.612L1622.27 329.621C1643.86 325.309 1666.31 321.256 1687.04 311.425C1712.99 299.524 1724.13 277.577 1718.52 249.982ZM643.786 519.728C641.273 518.19 639.195 516.036 637.752 513.47C636.308 510.903 635.546 508.011 635.538 505.068C635.462 502.828 635.883 500.6 636.772 498.542C637.66 496.485 638.994 494.649 640.677 493.167C643.176 491.102 646.327 489.987 649.572 490.02C650.616 490.013 651.658 490.114 652.681 490.322C669.952 493.642 682.388 510.113 685.497 523.954C685.692 524.438 685.692 524.978 685.497 525.463C685.061 525.917 684.482 526.207 683.856 526.282C683.328 526.385 682.808 526.53 682.302 526.713C681.711 526.908 681.104 527.052 680.488 527.144L674.27 527.748H673.061C662.691 528.307 652.419 525.492 643.786 519.728ZM670.255 598.073C670.128 599.512 669.571 600.879 668.657 601.997L668.225 602.687C653.026 626.617 634.329 640.588 611.013 645.503C601.81 648.056 591.987 647.135 583.421 642.916C577.384 640.008 572.214 635.573 568.426 630.051C564.638 624.528 562.365 618.112 561.831 611.44C559.629 591.045 565.631 571.771 580.744 550.773H581.003C601.988 577.118 631.177 592.641 670.255 598.073Z" fill="#010101"/>
<path d="M527.72 390.331C527.78 365.478 525.481 340.675 520.854 316.255C517.262 300.174 512.322 284.424 506.087 269.17C497.374 246.827 485.525 225.834 470.896 206.821C459.724 193.368 446.899 181.373 432.725 171.12C424.089 165.601 416.058 160.771 407.811 156.416C381.507 141.787 352.274 133.186 322.23 131.235C276.862 128.823 231.619 137.901 190.705 157.624C153.83 175.259 119.589 203.027 86.5138 242.48C64.1901 269.084 47.0479 301.896 34.0941 342.772C27.886 363.003 23.9186 383.854 22.2629 404.948C20.4009 423.486 19.9535 442.138 20.9244 460.743C22.2143 486.191 29.9229 510.901 43.3344 532.578C51.9703 546.117 61.4266 554.137 73.56 557.414C73.7448 557.455 73.9364 557.455 74.1213 557.414C84.8239 557.327 95.0724 553.084 102.697 545.583C110.321 538.082 114.722 527.913 114.969 517.228C115.114 503.824 113.957 490.438 111.515 477.257C108.135 457.891 106.402 438.275 106.333 418.617C106.613 380.409 120.374 343.523 145.194 314.444C168.868 286.093 198.676 263.477 232.373 248.301C257.314 237.224 284.519 232.172 311.78 233.554C328.292 233.62 344.668 236.537 360.184 242.178C382.583 250.514 401.407 266.326 413.467 286.935C423.357 303.082 429.631 321.174 431.862 339.97C431.841 340.098 431.841 340.229 431.862 340.358C434.646 350.533 436.098 361.027 436.18 371.575C436.18 374.378 436.439 377.224 436.611 380.199C438.511 409.993 432.293 438.149 424.953 464.193C423.269 470.445 421.24 476.74 419.297 482.82C418.39 485.665 417.44 488.554 416.576 491.443C406.516 524.17 390.453 553.749 369.468 588.157C357.992 607.821 344.998 626.562 330.606 644.21C320.032 656.552 308.015 667.582 294.811 677.066C287.828 681.844 280.113 685.456 271.969 687.759C270.57 688.247 269.122 688.579 267.651 688.751C259.015 689.527 253.272 688.363 250.379 685.172C247.486 681.982 246.795 677.109 247.918 669.65C250.797 652.344 254.646 635.214 259.447 618.339L264.24 600.532C274.516 562.415 285.138 522.919 298.135 485.019C304.536 466.822 309.164 448.05 311.953 428.965C314.175 417.475 312.101 405.571 306.124 395.506C297.488 382.096 284.793 378.258 265.449 383.088C260.412 384.532 255.729 387.002 251.694 390.341C247.659 393.68 244.359 397.817 242.002 402.491C235.578 413.511 230.089 425.049 225.594 436.985C214.972 464.667 206.336 493.383 199.125 518.09C192.26 541.46 185.869 565.52 179.651 588.459C176.327 600.747 173.045 613.036 169.677 625.281C169.657 625.366 169.657 625.455 169.677 625.54C169.677 626.144 169.677 626.747 169.677 627.308C169.58 628.482 169.407 629.649 169.159 630.8C167.345 638.562 165.503 646.337 163.632 654.127C160.609 666.761 157.501 679.998 154.521 692.718C151.013 706.703 149.961 721.19 151.412 735.534C154.478 761.06 166.957 779.471 188.59 790.294C196.167 793.613 204.367 795.274 212.64 795.166H214.281C237.725 794.372 260.847 789.468 282.591 780.679C311.089 769.511 335.788 751.445 355.996 735.232C385.401 711.819 409.538 683.059 427.285 660.595C465.876 612.16 494.717 556.727 512.218 497.35C522.865 462.685 528.093 426.588 527.72 390.331Z" fill="#010101"/>
</svg>
